<?xml version="1.0" standalone="no"?>
<!DOCTYPE svg PUBLIC "-//W3C//DTD SVG 20010904//EN"
 "http://www.w3.org/TR/2001/REC-SVG-20010904/DTD/svg10.dtd">
<svg version="1.0" xmlns="http://www.w3.org/2000/svg"
 width="360.000000pt" height="360.000000pt" viewBox="0 0 360.000000 360.000000"
 preserveAspectRatio="xMidYMid meet">
<metadata>
Created by potrace 1.11, written by Peter Selinger 2001-2013
</metadata>
<g transform="translate(0.000000,360.000000) scale(0.100000,-0.100000)"
fill="#000000" stroke="none">
<path d="M2908 3095 c-2 -1 -44 -5 -94 -8 -252 -16 -483 -93 -684 -229 -163
-110 -383 -314 -544 -506 -38 -45 -74 -83 -80 -83 -14 -2 -71 -5 -251 -14 -77
-4 -156 -8 -175 -10 -19 -2 -67 -5 -107 -6 -59 -2 -76 -6 -91 -23 -11 -12 -60
-91 -109 -176 -50 -85 -127 -218 -172 -295 -45 -76 -84 -149 -87 -162 -5 -18
7 -35 60 -88 36 -36 74 -65 85 -65 10 0 114 29 229 65 116 36 216 65 221 65 6
0 110 -99 231 -220 191 -192 220 -224 214 -244 -3 -13 -34 -114 -68 -224 -47
-149 -60 -205 -54 -223 10 -25 114 -128 132 -130 25 -3 40 5 173 83 76 44 154
90 173 101 140 79 311 180 315 187 7 11 19 199 31 465 3 83 9 155 13 161 3 6
40 40 81 75 197 167 380 365 495 534 53 79 133 240 164 330 47 139 78 332 83
513 4 128 -1 134 -109 131 -40 -1 -74 -3 -75 -4z m-235 -374 c64 -39 88 -137
51 -202 -32 -54 -68 -74 -134 -74 -44 0 -66 5 -87 21 -92 69 -84 208 15 260
52 27 106 26 155 -5z"/>
</g>
</svg>
